<mxfile host="app.diagrams.net" agent="Mozilla/5.0 (Windows NT 10.0; Win64; x64) AppleWebKit/537.36 (KHTML, like Gecko) Chrome/128.0.0.0 Safari/537.36" version="24.7.13">
  <diagram name="Page-1" id="9361dd3d-8414-5efd-6122-117bd74ce7a7">
    <mxGraphModel dx="1368" dy="1146" grid="1" gridSize="10" guides="1" tooltips="1" connect="1" arrows="1" fold="1" page="0" pageScale="1.5" pageWidth="826" pageHeight="1169" background="none" math="0" shadow="0">
      <root>
        <mxCell id="0" />
        <mxCell id="1" parent="0" />
        <mxCell id="aCEjS-SBYd0FpRpdrxDt-133" value="고객" style="shape=umlActor;verticalLabelPosition=bottom;verticalAlign=top;html=1;outlineConnect=0;" vertex="1" parent="1">
          <mxGeometry x="250" y="-380" width="30" height="60" as="geometry" />
        </mxCell>
        <mxCell id="aCEjS-SBYd0FpRpdrxDt-134" value="회원가입" style="ellipse;whiteSpace=wrap;html=1;" vertex="1" parent="1">
          <mxGeometry x="390" y="-400" width="100" height="40" as="geometry" />
        </mxCell>
        <mxCell id="aCEjS-SBYd0FpRpdrxDt-135" value="회원정보등록" style="ellipse;whiteSpace=wrap;html=1;" vertex="1" parent="1">
          <mxGeometry x="690" y="-400" width="100" height="40" as="geometry" />
        </mxCell>
        <mxCell id="aCEjS-SBYd0FpRpdrxDt-137" value="로그인" style="ellipse;whiteSpace=wrap;html=1;" vertex="1" parent="1">
          <mxGeometry x="390" y="-330" width="100" height="40" as="geometry" />
        </mxCell>
        <mxCell id="aCEjS-SBYd0FpRpdrxDt-138" value="본인확인절차" style="ellipse;whiteSpace=wrap;html=1;" vertex="1" parent="1">
          <mxGeometry x="680" y="-330" width="100" height="40" as="geometry" />
        </mxCell>
        <mxCell id="aCEjS-SBYd0FpRpdrxDt-139" value="&amp;lt;&amp;lt;include&amp;gt;&amp;gt;" style="endArrow=open;endSize=12;dashed=1;html=1;rounded=0;exitX=1;exitY=0.5;exitDx=0;exitDy=0;entryX=0;entryY=0.5;entryDx=0;entryDy=0;" edge="1" parent="1" source="aCEjS-SBYd0FpRpdrxDt-137" target="aCEjS-SBYd0FpRpdrxDt-138">
          <mxGeometry width="160" relative="1" as="geometry">
            <mxPoint x="500" y="-340" as="sourcePoint" />
            <mxPoint x="660" y="-340" as="targetPoint" />
          </mxGeometry>
        </mxCell>
        <mxCell id="aCEjS-SBYd0FpRpdrxDt-141" value="" style="endArrow=none;html=1;rounded=0;entryX=0;entryY=0.5;entryDx=0;entryDy=0;exitX=0.5;exitY=0.5;exitDx=0;exitDy=0;exitPerimeter=0;" edge="1" parent="1" source="aCEjS-SBYd0FpRpdrxDt-133" target="aCEjS-SBYd0FpRpdrxDt-134">
          <mxGeometry width="50" height="50" relative="1" as="geometry">
            <mxPoint x="740" y="-380" as="sourcePoint" />
            <mxPoint x="790" y="-430" as="targetPoint" />
          </mxGeometry>
        </mxCell>
        <mxCell id="aCEjS-SBYd0FpRpdrxDt-142" value="" style="endArrow=none;html=1;rounded=0;entryX=0;entryY=0.5;entryDx=0;entryDy=0;exitX=0.5;exitY=0.5;exitDx=0;exitDy=0;exitPerimeter=0;" edge="1" parent="1" source="aCEjS-SBYd0FpRpdrxDt-133" target="aCEjS-SBYd0FpRpdrxDt-137">
          <mxGeometry width="50" height="50" relative="1" as="geometry">
            <mxPoint x="275" y="-340" as="sourcePoint" />
            <mxPoint x="400" y="-370" as="targetPoint" />
          </mxGeometry>
        </mxCell>
        <mxCell id="aCEjS-SBYd0FpRpdrxDt-143" value="물품구입" style="ellipse;whiteSpace=wrap;html=1;" vertex="1" parent="1">
          <mxGeometry x="390" y="-250" width="100" height="40" as="geometry" />
        </mxCell>
        <mxCell id="aCEjS-SBYd0FpRpdrxDt-145" value="" style="endArrow=none;html=1;rounded=0;entryX=0;entryY=0.5;entryDx=0;entryDy=0;exitX=0.5;exitY=0.5;exitDx=0;exitDy=0;exitPerimeter=0;" edge="1" parent="1" source="aCEjS-SBYd0FpRpdrxDt-133" target="aCEjS-SBYd0FpRpdrxDt-143">
          <mxGeometry width="50" height="50" relative="1" as="geometry">
            <mxPoint x="275" y="-340" as="sourcePoint" />
            <mxPoint x="400" y="-300" as="targetPoint" />
          </mxGeometry>
        </mxCell>
        <mxCell id="aCEjS-SBYd0FpRpdrxDt-146" value="물품결제" style="ellipse;whiteSpace=wrap;html=1;" vertex="1" parent="1">
          <mxGeometry x="390" y="-170" width="100" height="40" as="geometry" />
        </mxCell>
        <mxCell id="aCEjS-SBYd0FpRpdrxDt-147" value="포인트 결제" style="ellipse;whiteSpace=wrap;html=1;" vertex="1" parent="1">
          <mxGeometry x="580" y="-210" width="100" height="40" as="geometry" />
        </mxCell>
        <mxCell id="aCEjS-SBYd0FpRpdrxDt-148" value="신용카드 결제" style="ellipse;whiteSpace=wrap;html=1;" vertex="1" parent="1">
          <mxGeometry x="580" y="-130" width="100" height="40" as="geometry" />
        </mxCell>
        <mxCell id="aCEjS-SBYd0FpRpdrxDt-149" value="&amp;lt;&amp;lt;extend&amp;gt;&amp;gt;" style="endArrow=open;endSize=12;dashed=1;html=1;rounded=0;exitX=0;exitY=0.5;exitDx=0;exitDy=0;entryX=1;entryY=0.5;entryDx=0;entryDy=0;" edge="1" parent="1" source="aCEjS-SBYd0FpRpdrxDt-147" target="aCEjS-SBYd0FpRpdrxDt-146">
          <mxGeometry width="160" relative="1" as="geometry">
            <mxPoint x="500" y="-220" as="sourcePoint" />
            <mxPoint x="750" y="-280" as="targetPoint" />
          </mxGeometry>
        </mxCell>
        <mxCell id="aCEjS-SBYd0FpRpdrxDt-151" value="&amp;lt;&amp;lt;extend&amp;gt;&amp;gt;" style="endArrow=open;endSize=12;dashed=1;html=1;rounded=0;exitX=0;exitY=0.5;exitDx=0;exitDy=0;entryX=0.98;entryY=0.675;entryDx=0;entryDy=0;entryPerimeter=0;" edge="1" parent="1" source="aCEjS-SBYd0FpRpdrxDt-148" target="aCEjS-SBYd0FpRpdrxDt-146">
          <mxGeometry width="160" relative="1" as="geometry">
            <mxPoint x="550" y="-170" as="sourcePoint" />
            <mxPoint x="500" y="-140" as="targetPoint" />
          </mxGeometry>
        </mxCell>
        <mxCell id="aCEjS-SBYd0FpRpdrxDt-152" value="승인요청" style="ellipse;whiteSpace=wrap;html=1;" vertex="1" parent="1">
          <mxGeometry x="740" y="-160" width="100" height="40" as="geometry" />
        </mxCell>
        <mxCell id="aCEjS-SBYd0FpRpdrxDt-153" value="&amp;lt;&amp;lt;include&amp;gt;&amp;gt;" style="endArrow=open;endSize=12;dashed=1;html=1;rounded=0;exitX=1;exitY=0.5;exitDx=0;exitDy=0;entryX=0;entryY=0.5;entryDx=0;entryDy=0;" edge="1" parent="1" source="aCEjS-SBYd0FpRpdrxDt-134" target="aCEjS-SBYd0FpRpdrxDt-135">
          <mxGeometry width="160" relative="1" as="geometry">
            <mxPoint x="500" y="-300" as="sourcePoint" />
            <mxPoint x="700" y="-300" as="targetPoint" />
          </mxGeometry>
        </mxCell>
        <mxCell id="aCEjS-SBYd0FpRpdrxDt-154" value="&amp;lt;&amp;lt;include&amp;gt;&amp;gt;" style="endArrow=open;endSize=12;dashed=1;html=1;rounded=0;exitX=1;exitY=0.5;exitDx=0;exitDy=0;entryX=0.5;entryY=1;entryDx=0;entryDy=0;" edge="1" parent="1" source="aCEjS-SBYd0FpRpdrxDt-143" target="aCEjS-SBYd0FpRpdrxDt-138">
          <mxGeometry width="160" relative="1" as="geometry">
            <mxPoint x="500" y="-370" as="sourcePoint" />
            <mxPoint x="700" y="-370" as="targetPoint" />
          </mxGeometry>
        </mxCell>
        <mxCell id="aCEjS-SBYd0FpRpdrxDt-155" value="&amp;lt;&amp;lt;include&amp;gt;&amp;gt;" style="endArrow=open;endSize=12;dashed=1;html=1;rounded=0;exitX=1;exitY=0.5;exitDx=0;exitDy=0;entryX=0;entryY=0.5;entryDx=0;entryDy=0;" edge="1" parent="1" source="aCEjS-SBYd0FpRpdrxDt-148" target="aCEjS-SBYd0FpRpdrxDt-152">
          <mxGeometry width="160" relative="1" as="geometry">
            <mxPoint x="500" y="-220" as="sourcePoint" />
            <mxPoint x="750" y="-280" as="targetPoint" />
          </mxGeometry>
        </mxCell>
        <mxCell id="aCEjS-SBYd0FpRpdrxDt-157" value="카드승인사" style="shape=umlActor;verticalLabelPosition=bottom;verticalAlign=top;html=1;outlineConnect=0;" vertex="1" parent="1">
          <mxGeometry x="940" y="-200" width="30" height="60" as="geometry" />
        </mxCell>
        <mxCell id="aCEjS-SBYd0FpRpdrxDt-158" value="" style="endArrow=none;html=1;rounded=0;entryX=0.5;entryY=0.5;entryDx=0;entryDy=0;entryPerimeter=0;exitX=1;exitY=0.5;exitDx=0;exitDy=0;" edge="1" parent="1" source="aCEjS-SBYd0FpRpdrxDt-152" target="aCEjS-SBYd0FpRpdrxDt-157">
          <mxGeometry width="50" height="50" relative="1" as="geometry">
            <mxPoint x="740" y="-300" as="sourcePoint" />
            <mxPoint x="790" y="-350" as="targetPoint" />
          </mxGeometry>
        </mxCell>
        <mxCell id="aCEjS-SBYd0FpRpdrxDt-159" value="" style="endArrow=none;html=1;rounded=0;entryX=0;entryY=0.5;entryDx=0;entryDy=0;exitX=0.5;exitY=0.5;exitDx=0;exitDy=0;exitPerimeter=0;" edge="1" parent="1" source="aCEjS-SBYd0FpRpdrxDt-133" target="aCEjS-SBYd0FpRpdrxDt-146">
          <mxGeometry width="50" height="50" relative="1" as="geometry">
            <mxPoint x="275" y="-340" as="sourcePoint" />
            <mxPoint x="400" y="-220" as="targetPoint" />
          </mxGeometry>
        </mxCell>
        <mxCell id="aCEjS-SBYd0FpRpdrxDt-160" value="배송조회" style="ellipse;whiteSpace=wrap;html=1;" vertex="1" parent="1">
          <mxGeometry x="390" y="-50" width="100" height="40" as="geometry" />
        </mxCell>
        <mxCell id="aCEjS-SBYd0FpRpdrxDt-161" value="" style="endArrow=none;html=1;rounded=0;entryX=0;entryY=0.5;entryDx=0;entryDy=0;exitX=0.5;exitY=0.5;exitDx=0;exitDy=0;exitPerimeter=0;" edge="1" parent="1" source="aCEjS-SBYd0FpRpdrxDt-133" target="aCEjS-SBYd0FpRpdrxDt-160">
          <mxGeometry width="50" height="50" relative="1" as="geometry">
            <mxPoint x="275" y="-340" as="sourcePoint" />
            <mxPoint x="400" y="-140" as="targetPoint" />
          </mxGeometry>
        </mxCell>
        <mxCell id="aCEjS-SBYd0FpRpdrxDt-163" value="직원" style="shape=umlActor;verticalLabelPosition=bottom;verticalAlign=top;html=1;outlineConnect=0;" vertex="1" parent="1">
          <mxGeometry x="945" y="-40" width="30" height="60" as="geometry" />
        </mxCell>
        <mxCell id="aCEjS-SBYd0FpRpdrxDt-164" value="배송추적" style="ellipse;whiteSpace=wrap;html=1;" vertex="1" parent="1">
          <mxGeometry x="740" y="-20" width="100" height="40" as="geometry" />
        </mxCell>
        <mxCell id="aCEjS-SBYd0FpRpdrxDt-165" value="" style="endArrow=none;html=1;rounded=0;entryX=0.5;entryY=0.5;entryDx=0;entryDy=0;entryPerimeter=0;exitX=1;exitY=0.5;exitDx=0;exitDy=0;" edge="1" parent="1" source="aCEjS-SBYd0FpRpdrxDt-164" target="aCEjS-SBYd0FpRpdrxDt-163">
          <mxGeometry width="50" height="50" relative="1" as="geometry">
            <mxPoint x="850" y="-130" as="sourcePoint" />
            <mxPoint x="965" y="-160" as="targetPoint" />
          </mxGeometry>
        </mxCell>
        <mxCell id="aCEjS-SBYd0FpRpdrxDt-166" value="암호화모듈" style="shape=umlActor;verticalLabelPosition=bottom;verticalAlign=top;html=1;outlineConnect=0;" vertex="1" parent="1">
          <mxGeometry x="920" y="-400" width="30" height="60" as="geometry" />
        </mxCell>
        <mxCell id="aCEjS-SBYd0FpRpdrxDt-167" value="" style="endArrow=none;html=1;rounded=0;entryX=0.5;entryY=0.5;entryDx=0;entryDy=0;entryPerimeter=0;exitX=1;exitY=0.5;exitDx=0;exitDy=0;" edge="1" parent="1" source="aCEjS-SBYd0FpRpdrxDt-138" target="aCEjS-SBYd0FpRpdrxDt-166">
          <mxGeometry width="50" height="50" relative="1" as="geometry">
            <mxPoint x="790" y="-310" as="sourcePoint" />
            <mxPoint x="790" y="-340" as="targetPoint" />
          </mxGeometry>
        </mxCell>
      </root>
    </mxGraphModel>
  </diagram>
</mxfile>
